<svg id="Layer_1" data-name="Layer 1" xmlns="http://www.w3.org/2000/svg" viewBox="0 0 64 64"><title>house_11</title><path d="M47,61H37a1,1,0,0,1-1-1V44a1,1,0,0,1,1-1H47a1,1,0,0,1,1,1V60A1,1,0,0,1,47,61Zm-9-2h8V45H38Z"/><path d="M40,15H4a1,1,0,0,1-1-1V4A1,1,0,0,1,4,3H40a1,1,0,0,1,1,1V14A1,1,0,0,1,40,15ZM5,13H39V5H5Z"/><path d="M40,23H24a1,1,0,0,1-1-1V14a1,1,0,0,1,1-1H40a1,1,0,0,1,1,1v8A1,1,0,0,1,40,23ZM25,21H39V15H25Z"/><path d="M60,31H24a1,1,0,0,1-1-1V22a1,1,0,0,1,1-1H60a1,1,0,0,1,1,1v8A1,1,0,0,1,60,31ZM25,29H59V23H25Z"/><path d="M24,61H4a1,1,0,0,1-1-1V14a1,1,0,0,1,1-1H24a1,1,0,0,1,1,1V60A1,1,0,0,1,24,61ZM5,59H23V15H5Z"/><path d="M60,61H24a1,1,0,0,1-1-1V30a1,1,0,0,1,1-1H60a1,1,0,0,1,1,1V60A1,1,0,0,1,60,61ZM25,59H59V31H25Z"/></svg>